# xmcd
#
# Track frame offsets:
#	150
#	18615
#	37245
#	58620
#	78667
#	100795
#	115665
#	136815
#	157602
#
# Disc length: 2361 seconds
#
# Revision: 3
# Processed by: cddbd v1.5.2PL0 Copyright (c) Steve Scherf et al.
# Submitted via: EasyCDDAExtractor 15.3.0.1
#
DISCID=6a093709
DTITLE=Jessica Cristina
DYEAR=1998
DGENRE=Latin
TTITLE0=Dame, Dame, Dame (Gimme, Gimme, Gimme)
TTITLE1=Se Como Duele
TTITLE2=Sigo Soñando Con Tu Amor
TTITLE3=Llanto De Pasion
TTITLE4=24 Horas
TTITLE5=Amor Perdido
TTITLE6=Por Que Sera
TTITLE7=La Preferida
TTITLE8=Mas (Bonus Track)
EXTD=
EXTT0=
EXTT1=
EXTT2=
EXTT3=
EXTT4=
EXTT5=
EXTT6=
EXTT7=
EXTT8=
PLAYORDER=
